<?xml version="1.0" encoding="utf-8"?>
<!-- Generator: Adobe Illustrator 18.1.1, SVG Export Plug-In . SVG Version: 6.00 Build 0)  -->
<svg version="1.1" id="Layer_1" xmlns="http://www.w3.org/2000/svg" xmlns:xlink="http://www.w3.org/1999/xlink" x="0px" y="0px"
	 viewBox="0 0 1920 1080" enable-background="new 0 0 1920 1080" xml:space="preserve">
<g>
	<path fill="#FFFFFF" d="M838,406.2c0,9.6,0,19.2,1.9,26.9c0,1.9,3.8,3.8,5.8,3.8c26.9,7.7,53.8,15.4,78.7,25c1.9,0,5.8,1.9,9.6,3.8
		c-30.7,36.5-59.5,71-90.2,107.5c-5.8-17.3-9.6-30.7-13.4-46.1c-11.5-40.3-23-80.6-36.5-121c-1.9-7.7,0-9.6,5.8-15.4
		c105.6-63.4,211.2-128.6,314.9-192c1.9,0,1.9-1.9,3.8-3.8c-13.4,5.8-28.8,11.5-42.2,17.3c-113.3,44.2-226.6,90.2-339.8,134.4
		c-5.8,1.9-9.6,1.9-13.4-1.9c-40.3-30.7-80.6-61.4-121-90.2c-1.9-1.9-3.8-3.8-7.7-5.8C838,198.9,1080,149,1325.7,99
		c-1.9,3.8-1.9,5.8-3.8,7.7c-74.9,121-149.8,241.9-222.7,362.9c-3.8,5.8-5.8,5.8-11.5,3.8c-78.7-23-157.4-44.2-238.1-65.3
		C845.7,408.2,841.9,406.2,838,406.2z"/>
</g>
</svg>
